<?xml version="1.0" standalone="no"?>
<!DOCTYPE svg PUBLIC "-//W3C//DTD SVG 20010904//EN"
 "http://www.w3.org/TR/2001/REC-SVG-20010904/DTD/svg10.dtd">
<svg version="1.0" xmlns="http://www.w3.org/2000/svg"
 width="85.078705pt" height="59.529275pt" viewBox="0 0 85.078705 59.529275"
 preserveAspectRatio="xMidYMid meet">
<g transform="translate(-9.809608,102.392517) scale(0.100000,-0.100000)"
fill="#000000" stroke="none">
<path d="M576 1011 c-14 -15 -14 -20 -3 -30 11 -8 18 -7 31 8 14 15 14 20 3
30 -11 8 -18 7 -31 -8z"/>
<path d="M376 1001 c-11 -12 -15 -27 -11 -40 8 -25 -3 -47 -67 -134 -32 -43
-52 -81 -55 -105 -5 -34 -1 -42 27 -65 47 -40 90 -37 130 11 37 45 46 75 31
108 -13 30 -34 31 -54 1 -14 -22 -14 -25 4 -40 26 -23 24 -35 -7 -43 -33 -8
-78 23 -82 57 -2 17 18 58 63 127 62 95 75 130 49 139 -6 2 -18 -5 -28 -16z"/>
<path d="M150 955 c-10 -11 -10 -19 -2 -27 15 -15 44 -2 40 19 -4 23 -22 27
-38 8z"/>
<path d="M520 955 c-10 -12 -10 -18 0 -30 12 -14 15 -14 31 1 14 13 16 20 8
31 -15 17 -24 17 -39 -2z"/>
<path d="M610 955 c-22 -27 12 -49 38 -23 8 8 9 15 1 25 -15 17 -24 16 -39 -2z"/>
<path d="M120 823 l-22 -28 29 -5 28 -6 -2 -77 c-3 -81 3 -91 37 -57 17 17 20
33 20 110 l0 90 -34 0 c-26 0 -40 -7 -56 -27z"/>
<path d="M482 827 c-16 -17 -19 -26 -11 -34 8 -8 10 -67 7 -192 -4 -170 -3
-179 14 -170 32 17 38 46 38 193 0 145 0 146 25 162 21 14 31 15 51 6 29 -14
48 -56 39 -90 -5 -20 -10 -22 -34 -17 -31 7 -57 -15 -47 -40 16 -43 101 25
126 100 11 33 10 40 -7 64 -25 32 -91 41 -128 17 -30 -20 -35 -20 -35 -2 0 25
-16 26 -38 3z"/>
<path d="M731 826 c-16 -17 -19 -26 -10 -31 8 -6 10 -30 6 -86 -6 -71 -5 -78
11 -72 30 10 42 35 42 85 0 40 4 50 25 64 33 21 71 7 86 -33 17 -47 8 -68 -27
-66 -35 3 -60 -18 -50 -42 14 -38 83 9 120 82 21 42 20 55 -5 87 -16 21 -29
26 -63 26 -23 0 -51 -7 -62 -15 -24 -18 -34 -19 -34 -1 0 26 -16 26 -39 2z"/>
</g>
</svg>
